<svg width="70" height="68" viewBox="0 0 70 68" fill="none" xmlns="http://www.w3.org/2000/svg" xmlns:xlink="http://www.w3.org/1999/xlink">
<path d="M0,0L70,0L70,68L0,68L0,0Z" fill="#575353"/>
<path d="M52.5,8.5L17.5,8.5C15.179,8.5 12.954,9.396 11.313,10.99C9.672,12.584 8.75,14.746 8.75,17L8.75,51C8.75,53.254 9.672,55.416 11.313,57.01C12.954,58.604 15.179,59.5 17.5,59.5L52.5,59.5C54.821,59.5 57.046,58.604 58.687,57.01C60.328,55.416 61.25,53.254 61.25,51L61.25,17C61.25,14.746 60.328,12.584 58.687,10.99C57.046,9.396 54.821,8.5 52.5,8.5ZM43.75,36.833L37.917,36.833L37.917,42.5C37.917,43.251 37.609,43.972 37.062,44.503C36.515,45.035 35.774,45.333 35,45.333C34.226,45.333 33.485,45.035 32.938,44.503C32.391,43.972 32.083,43.251 32.083,42.5L32.083,36.833L26.25,36.833C25.476,36.833 24.735,36.535 24.188,36.003C23.641,35.472 23.333,34.751 23.333,34C23.333,33.249 23.641,32.528 24.188,31.997C24.735,31.465 25.476,31.167 26.25,31.167L32.083,31.167L32.083,25.5C32.083,24.749 32.391,24.028 32.938,23.497C33.485,22.965 34.226,22.667 35,22.667C35.774,22.667 36.515,22.965 37.062,23.497C37.609,24.028 37.917,24.749 37.917,25.5L37.917,31.167L43.75,31.167C44.524,31.167 45.265,31.465 45.812,31.997C46.359,32.528 46.667,33.249 46.667,34C46.667,34.751 46.359,35.472 45.812,36.003C45.265,36.535 44.524,36.833 43.75,36.833Z" fill="#9E9898"/>
</svg>
