<svg width="60" height="44" viewBox="0 0 60 44" fill="none" xmlns="http://www.w3.org/2000/svg" xmlns:xlink="http://www.w3.org/1999/xlink">
<path d="M23.387,4.137C24.567,2.974 24.581,1.074 23.418,-0.106C22.255,-1.286 20.356,-1.3 19.175,-0.137L23.387,4.137ZM2,21L-0.106,18.863C-0.678,19.427 -1,20.197 -1,21C-1,21.803 -0.678,22.573 -0.106,23.137L2,21ZM19.175,42.137C20.356,43.3 22.255,43.286 23.418,42.106C24.581,40.926 24.567,39.026 23.387,37.863L19.175,42.137ZM56,24C57.657,24 59,22.657 59,21C59,19.343 57.657,18 56,18L56,24ZM2.54,18C0.883,18 -0.46,19.343 -0.46,21C-0.46,22.657 0.883,24 2.54,24L2.54,18ZM19.175,-0.137L-0.106,18.863L4.106,23.137L23.387,4.137L19.175,-0.137ZM-0.106,23.137L19.175,42.137L23.387,37.863L4.106,18.863L-0.106,23.137ZM56,18L2.54,18L2.54,24L56,24L56,18Z" fill="#292D32"/>
</svg>
