<svg width="48" height="54" viewBox="0 0 48 54" fill="none" xmlns="http://www.w3.org/2000/svg" xmlns:xlink="http://www.w3.org/1999/xlink">
<path d="M26.748,1.134C25.206,-0.378 22.794,-0.378 21.252,1.134L1.878,20.139C0.679,21.315 0,22.951 0,24.662L0,47.775C0,51.213 2.686,54 6,54L12,54C15.314,54 18,51.213 18,47.775L18,37.4C18,36.254 18.895,35.325 20,35.325L28,35.325C29.105,35.325 30,36.254 30,37.4L30,47.775C30,51.213 32.686,54 36,54L42,54C45.314,54 48,51.213 48,47.775L48,24.662C48,22.951 47.321,21.315 46.122,20.139L26.748,1.134Z" fill="#FA9884"/>
</svg>
