<svg width="46" height="10" viewBox="0 0 46 10" fill="none" xmlns="http://www.w3.org/2000/svg" xmlns:xlink="http://www.w3.org/1999/xlink">
<path d="M23,10C25.823,10 28.111,7.761 28.111,5C28.111,2.239 25.823,0 23,0C20.177,0 17.889,2.239 17.889,5C17.889,7.761 20.177,10 23,10Z" fill="#706C6C"/>
<path d="M40.889,10C43.712,10 46,7.761 46,5C46,2.239 43.712,0 40.889,0C38.066,0 35.778,2.239 35.778,5C35.778,7.761 38.066,10 40.889,10Z" fill="#706C6C"/>
<path d="M5.111,10C7.934,10 10.222,7.761 10.222,5C10.222,2.239 7.934,0 5.111,0C2.288,0 0,2.239 0,5C0,7.761 2.288,10 5.111,10Z" fill="#706C6C"/>
</svg>
