<svg width="50" height="12" viewBox="0 0 50 12" fill="none" xmlns="http://www.w3.org/2000/svg" xmlns:xlink="http://www.w3.org/1999/xlink">
<path d="M25,12C28.068,12 30.556,9.314 30.556,6C30.556,2.686 28.068,0 25,0C21.932,0 19.444,2.686 19.444,6C19.444,9.314 21.932,12 25,12Z" fill="#706C6C"/>
<path d="M44.444,12C47.513,12 50,9.314 50,6C50,2.686 47.513,0 44.444,0C41.376,0 38.889,2.686 38.889,6C38.889,9.314 41.376,12 44.444,12Z" fill="#706C6C"/>
<path d="M5.556,12C8.624,12 11.111,9.314 11.111,6C11.111,2.686 8.624,0 5.556,0C2.487,0 0,2.686 0,6C0,9.314 2.487,12 5.556,12Z" fill="#706C6C"/>
</svg>
