<svg width="46" height="52" viewBox="0 0 46 52" fill="none" xmlns="http://www.w3.org/2000/svg" xmlns:xlink="http://www.w3.org/1999/xlink">
<path d="M23,52C26.35,52 29.151,49.832 30.202,46.8L15.798,46.8C16.849,49.832 19.65,52 23,52ZM40.889,32.724L40.889,20.8C40.889,12.436 35.305,5.39 27.741,3.271C26.992,1.352 25.162,0 23,0C20.838,0 19.008,1.352 18.259,3.271C10.695,5.392 5.111,12.436 5.111,20.8L5.111,32.724L0.749,37.162C0.268,37.648 0,38.308 0,39L0,41.6C0,43.038 1.142,44.2 2.556,44.2L43.444,44.2C44.858,44.2 46,43.038 46,41.6L46,39C46,38.308 45.732,37.648 45.251,37.162L40.889,32.724Z" fill="#9E9898"/>
</svg>
