<svg width="74" height="68" viewBox="0 0 74 68" fill="none" xmlns="http://www.w3.org/2000/svg" xmlns:xlink="http://www.w3.org/1999/xlink">
<path d="M0,0L74,0L74,68L0,68L0,0Z" fill="#575353"/>
<path d="M37,31.167C39.439,31.167 41.824,30.502 43.852,29.257C45.88,28.011 47.461,26.241 48.395,24.17C49.328,22.1 49.572,19.821 49.096,17.622C48.62,15.424 47.446,13.404 45.721,11.819C43.996,10.234 41.799,9.155 39.406,8.718C37.014,8.28 34.534,8.505 32.28,9.363C30.027,10.221 28.1,11.673 26.745,13.537C25.39,15.401 24.667,17.592 24.667,19.833C24.667,22.839 25.966,25.722 28.279,27.847C30.592,29.973 33.729,31.167 37,31.167Z" fill="#9E9898"/>
<path d="M55.5,59.5C56.318,59.5 57.102,59.201 57.68,58.67C58.258,58.139 58.583,57.418 58.583,56.667C58.583,51.407 56.309,46.362 52.262,42.642C48.214,38.923 42.724,36.833 37,36.833C31.276,36.833 25.786,38.923 21.738,42.642C17.691,46.362 15.417,51.407 15.417,56.667C15.417,57.418 15.742,58.139 16.32,58.67C16.898,59.201 17.682,59.5 18.5,59.5L55.5,59.5Z" fill="#9E9898"/>
</svg>
