<svg width="52" height="54" viewBox="0 0 52 54" fill="none" xmlns="http://www.w3.org/2000/svg" xmlns:xlink="http://www.w3.org/1999/xlink">
<path d="M51.293,46.686L41.166,36.172C40.709,35.698 40.09,35.434 39.44,35.434L37.784,35.434C40.587,31.711 42.253,27.029 42.253,21.935C42.253,9.818 32.797,0 21.127,0C9.456,0 0,9.818 0,21.935C0,34.053 9.456,43.871 21.127,43.871C26.032,43.871 30.542,42.141 34.127,39.231L34.127,40.95C34.127,41.624 34.381,42.268 34.838,42.742L44.965,53.257C45.92,54.248 47.464,54.248 48.408,53.257L51.283,50.272C52.237,49.281 52.237,47.678 51.293,46.686ZM21.127,35.434C13.946,35.434 8.126,29.402 8.126,21.935C8.126,14.479 13.935,8.437 21.127,8.437C28.308,8.437 34.127,14.469 34.127,21.935C34.127,29.391 28.318,35.434 21.127,35.434Z" fill="#9E9898"/>
</svg>
