<svg width="54" height="56" viewBox="0 0 54 56" fill="none" xmlns="http://www.w3.org/2000/svg" xmlns:xlink="http://www.w3.org/1999/xlink">
<path d="M53.31,34.729L48.465,31.952C48.955,29.332 48.955,26.645 48.465,24.026L53.31,21.248C53.868,20.932 54.118,20.277 53.936,19.668C52.673,15.648 50.524,12.013 47.715,8.987C47.283,8.524 46.578,8.411 46.032,8.727L41.187,11.505C39.151,9.766 36.808,8.423 34.272,7.542L34.272,1.998C34.272,1.366 33.829,0.813 33.203,0.678C29.03,-0.248 24.753,-0.203 20.784,0.678C20.159,0.813 19.715,1.366 19.715,1.998L19.715,7.553C17.191,8.445 14.848,9.789 12.801,11.516L7.967,8.739C7.41,8.423 6.716,8.524 6.284,8.998C3.475,12.013 1.326,15.648 0.063,19.679C-0.13,20.289 0.131,20.944 0.689,21.26L5.534,24.037C5.044,26.656 5.044,29.344 5.534,31.963L0.689,34.74C0.131,35.056 -0.119,35.711 0.063,36.321C1.326,40.34 3.475,43.976 6.284,47.002C6.716,47.464 7.421,47.577 7.967,47.261L12.812,44.484C14.848,46.223 17.191,47.566 19.727,48.447L19.727,54.002C19.727,54.634 20.17,55.187 20.796,55.322C24.969,56.248 29.246,56.203 33.215,55.322C33.84,55.187 34.284,54.634 34.284,54.002L34.284,48.447C36.808,47.555 39.151,46.211 41.198,44.484L46.043,47.261C46.6,47.577 47.294,47.476 47.726,47.002C50.535,43.987 52.685,40.352 53.947,36.321C54.118,35.7 53.868,35.045 53.31,34.729ZM26.994,37.021C21.978,37.021 17.896,32.968 17.896,27.989C17.896,23.01 21.978,18.956 26.994,18.956C32.009,18.956 36.092,23.01 36.092,27.989C36.092,32.968 32.009,37.021 26.994,37.021Z" fill="#292D32"/>
</svg>
