<svg width="42" height="28" viewBox="0 0 42 28" fill="none" xmlns="http://www.w3.org/2000/svg" xmlns:xlink="http://www.w3.org/1999/xlink">
<path d="M17.889,3.276L16.352,1.997L16.344,2.007L17.889,3.276ZM2.487,22.023L0.942,20.753C0.934,20.762 0.927,20.772 0.92,20.781L2.487,22.023ZM5.597,26L5.581,28L5.597,28L5.597,26ZM36.4,26L36.4,28L36.416,28L36.4,26ZM39.51,22.023L41.077,20.781C41.07,20.772 41.062,20.762 41.055,20.753L39.51,22.023ZM24.108,3.276L25.653,2.007L25.645,1.997L24.108,3.276ZM20.998,2L20.998,0L20.998,2ZM16.344,2.007L0.942,20.753L4.033,23.292L19.434,4.546L16.344,2.007ZM0.92,20.781C0.355,21.494 0.004,22.375 0,23.334L4,23.349C4,23.359 3.998,23.362 4.001,23.352C4.005,23.341 4.018,23.311 4.055,23.264L0.92,20.781ZM0,23.334C-0.004,24.292 0.341,25.176 0.902,25.893L4.053,23.43C4.017,23.384 4.005,23.354 4.001,23.344C3.998,23.336 4,23.338 4,23.349L0,23.334ZM0.902,25.893C1.455,26.602 2.199,27.127 3.004,27.472L4.581,23.796C4.291,23.672 4.128,23.526 4.053,23.43L0.902,25.893ZM3.004,27.472C3.811,27.818 4.698,27.993 5.581,28L5.613,24C5.226,23.997 4.868,23.919 4.581,23.796L3.004,27.472ZM5.597,28L36.4,28L36.4,24L5.597,24L5.597,28ZM36.416,28C37.299,27.993 38.186,27.818 38.993,27.472L37.416,23.796C37.129,23.919 36.771,23.997 36.384,24L36.416,28ZM38.993,27.472C39.798,27.127 40.542,26.602 41.095,25.893L37.944,23.43C37.869,23.526 37.706,23.672 37.416,23.796L38.993,27.472ZM41.095,25.893C41.656,25.176 42.001,24.292 41.997,23.334L37.997,23.349C37.997,23.338 37.999,23.336 37.996,23.344C37.992,23.354 37.98,23.384 37.944,23.43L41.095,25.893ZM41.997,23.334C41.993,22.375 41.642,21.494 41.077,20.781L37.942,23.264C37.978,23.311 37.992,23.341 37.996,23.352C37.999,23.362 37.997,23.359 37.997,23.349L41.997,23.334ZM41.055,20.753L25.653,2.007L22.563,4.546L37.964,23.292L41.055,20.753ZM25.645,1.997C25.081,1.319 24.34,0.818 23.542,0.491L22.023,4.191C22.315,4.311 22.486,4.455 22.57,4.555L25.645,1.997ZM23.542,0.491C22.742,0.162 21.868,0 20.998,0L20.998,4C21.379,4 21.734,4.073 22.023,4.191L23.542,0.491ZM20.998,0C20.129,0 19.255,0.162 18.455,0.491L19.974,4.191C20.263,4.073 20.618,4 20.998,4L20.998,0ZM18.455,0.491C17.657,0.818 16.916,1.319 16.352,1.997L19.426,4.555C19.51,4.455 19.682,4.311 19.974,4.191L18.455,0.491Z" transform="rotate(-360 20.998 14)" fill="#000000"/>
</svg>
