<svg width="28" height="16" viewBox="0 0 28 16" fill="none" xmlns="http://www.w3.org/2000/svg" xmlns:xlink="http://www.w3.org/1999/xlink">
<path d="M26.414,2.414C27.195,1.633 27.195,0.367 26.414,-0.414C25.633,-1.195 24.367,-1.195 23.586,-0.414L26.414,2.414ZM13,13L11.586,14.414C12.367,15.195 13.633,15.195 14.414,14.414L13,13ZM2.414,-0.414C1.633,-1.195 0.367,-1.195 -0.414,-0.414C-1.195,0.367 -1.195,1.633 -0.414,2.414L2.414,-0.414ZM23.586,-0.414L11.586,11.586L14.414,14.414L26.414,2.414L23.586,-0.414ZM14.414,11.586L2.414,-0.414L-0.414,2.414L11.586,14.414L14.414,11.586Z" fill="#000000"/>
</svg>
